<svg width="320" height="80" viewBox="0 0 320 80" fill="none" xmlns="http://www.w3.org/2000/svg">
  <defs>
    <linearGradient id="g1" x1="0" y1="0" x2="1" y2="1">
      <stop stop-color="#7CC2FF" offset="0"/>
      <stop stop-color="#9BCFFF" offset="1"/>
    </linearGradient>
    <linearGradient id="g2" x1="0" y1="0" x2="1" y2="0">
      <stop stop-color="#E8ECF2" offset="0"/>
      <stop stop-color="#C7D4E6" offset="1"/>
    </linearGradient>
  </defs>
  <rect x="8" y="10" width="60" height="60" rx="16" fill="url(#g1)"/>
  <path d="M30 30c0-5.523 4.477-10 10-10h6c5.523 0 10 4.477 10 10v20c0 5.523-4.477 10-10 10h-6c-5.523 0-10-4.477-10-10V30z" fill="#0B1018" fill-opacity="0.2"/>
  <path d="M28 32c0-6.627 5.373-12 12-12s12 5.373 12 12-5.373 12-12 12-12-5.373-12-12z" fill="#0B1018" fill-opacity="0.08"/>
  <circle cx="40" cy="32" r="6" fill="#E8ECF2"/>
  <path d="M24 46c0-4.418 3.582-8 8-8h16c4.418 0 8 3.582 8 8 0 7.732-6.268 14-14 14h-4c-7.732 0-14-6.268-14-14z" fill="#E8ECF2" fill-opacity="0.85"/>
  <g transform="translate(86 22)" fill="url(#g2)">
    <path d="M0 18c0-10 7.6-18 18-18s18 8 18 18-7.6 18-18 18S0 28 0 18zm28 0c0-5.6-3.8-10.2-10-10.2S8 12.4 8 18s3.8 10.2 10 10.2S28 23.6 28 18z"/>
    <path d="M44 0h10.2c7 0 12.4 4.8 12.4 11.4S61.2 23 54.2 23H52V36h-8V0zm10.4 15.6c2.6 0 4.6-1.6 4.6-4 0-2.6-2-4.2-4.6-4.2H52v8.2h2.4z"/>
    <path d="M86 0h8v25.6c0 7-4.8 12.4-11.8 12.4-7.6 0-12.2-5.4-12.2-12.4V0h8v24.4c0 3 1.8 5.2 4.4 5.2 2.4 0 4.6-2.2 4.6-5.2V0z"/>
    <path d="M106 0h8v6.6c1.8-4.4 5.8-7.2 11-7.2 6.8 0 12 4.8 12 13v23.6h-8V14.6c0-3.6-2.2-6-5.6-6-3.4 0-6.6 2.8-6.6 7.2V36h-8V0z"/>
    <path d="M150 0h8v6.2c1.8-3.8 5.4-6.8 10.4-6.8 7 0 12.4 5 12.4 12.8V36h-8V14.2c0-3.6-2.4-6-5.6-6-3.4 0-6.6 2.8-6.6 7.4V36h-8V0z"/>
    <path d="M192 18c0-10 7.4-18 17.8-18 7.4 0 12.8 3.8 15 9.6l-7.2 3.2c-1.2-2.8-3.8-4.6-7.6-4.6-6.2 0-9.8 4.6-9.8 10.2 0 5.6 3.6 10.2 9.8 10.2 3.8 0 6.6-1.8 7.8-4.8l7.2 3c-2.4 6-7.8 9.8-15.2 9.8C199.4 36 192 28 192 18z"/>
    <path d="M244.6 0h8V36h-8V0z"/>
    <path d="M260 18c0-10 7.6-18 18-18 10.6 0 18 8 18 18s-7.4 18-18 18c-10.4 0-18-8-18-18zm28 0c0-5.6-3.8-10.2-10-10.2-6.2 0-10 4.6-10 10.2s3.8 10.2 10 10.2c6.2 0 10-4.6 10-10.2z"/>
  </g>
</svg>
